<?xml version="1.0" encoding="utf-8"?>
<!-- Generator: Adobe Illustrator 23.1.0, SVG Export Plug-In . SVG Version: 6.00 Build 0)  -->
<svg version="1.1" id="Layer_1" xmlns="http://www.w3.org/2000/svg" xmlns:xlink="http://www.w3.org/1999/xlink" x="0px" y="0px"
	 viewBox="0 0 300 51" style="enable-background:new 0 0 300 51;" xml:space="preserve">
<style type="text/css">
	.st0{fill:url(#SVGID_1_);}
	.st1{fill:url(#SVGID_2_);}
	.st2{fill:url(#SVGID_3_);}
	.st3{fill:url(#SVGID_4_);}
	.st4{fill:url(#SVGID_5_);}
	.st5{fill:url(#SVGID_6_);}
	.st6{fill:url(#SVGID_7_);}
	.st7{fill:url(#SVGID_8_);}
	.st8{fill:url(#SVGID_9_);}
</style>
<g>
	<linearGradient id="SVGID_1_" gradientUnits="userSpaceOnUse" x1="38.1588" y1="45.7579" x2="199.9527" y2="163.3644">
		<stop  offset="0.1983" style="stop-color:#49C0BD"/>
		<stop  offset="0.5754" style="stop-color:#86499B"/>
		<stop  offset="1" style="stop-color:#BD2A95"/>
	</linearGradient>
	<path class="st0" d="M19.1,20c3.7,0,6.8,1.5,9.2,4.5l0.2,0.2c0.7,0.7,1.6,1.1,2.6,1.1c0,0,0,0,0,0c0.9,0,1.8-0.4,2.6-1.1l0.2-0.2
		c1.1-1.1,1.6-3.1,0.1-4.8c-3.7-4.6-8.9-7-14.9-7c-10.8,0-19,8.3-19,19.2C0,42.8,8.2,51,19,51c6,0,11.2-2.4,14.9-7
		c1.5-1.8,1.1-3.8-0.1-4.9l-0.2-0.2c-1.5-1.5-3.6-1.5-5.1,0l-0.2,0.2c-2.4,3-5.5,4.5-9.2,4.5c-6.7,0-11.5-5-11.5-11.8
		C7.6,25,12.5,20,19.1,20z"/>
	<linearGradient id="SVGID_2_" gradientUnits="userSpaceOnUse" x1="49.0643" y1="30.7549" x2="210.8582" y2="148.3614">
		<stop  offset="0.1983" style="stop-color:#49C0BD"/>
		<stop  offset="0.5754" style="stop-color:#86499B"/>
		<stop  offset="1" style="stop-color:#BD2A95"/>
	</linearGradient>
	<path class="st1" d="M43.7,0.6c-0.5-0.4-1.5-0.9-3.1-0.4l-0.5,0.2c-1.7,0.5-2.6,1.7-2.6,3.4v42.9c0,2,1.5,3.6,3.5,3.6h0.5
		c2,0,3.5-1.5,3.5-3.6V3.5C45,1.9,44.2,1,43.7,0.6z"/>
	<linearGradient id="SVGID_3_" gradientUnits="userSpaceOnUse" x1="54.9665" y1="22.6352" x2="216.7603" y2="140.2417">
		<stop  offset="0.1983" style="stop-color:#49C0BD"/>
		<stop  offset="0.5754" style="stop-color:#86499B"/>
		<stop  offset="1" style="stop-color:#BD2A95"/>
	</linearGradient>
	<path class="st2" d="M67.6,12.6c-11.1,0-19.4,8.3-19.4,19.2c0,10.9,8.3,19.2,19.4,19.2C78.7,51,87,42.8,87,31.8
		C87,20.9,78.7,12.6,67.6,12.6z M67.6,43.7c-6.8,0-11.8-5-11.8-11.8c0-6.9,5-11.8,11.8-11.8s11.8,5,11.8,11.8
		C79.4,38.7,74.4,43.7,67.6,43.7z"/>
	<linearGradient id="SVGID_4_" gradientUnits="userSpaceOnUse" x1="69.0641" y1="3.2407" x2="230.858" y2="120.8472">
		<stop  offset="0.1983" style="stop-color:#49C0BD"/>
		<stop  offset="0.5754" style="stop-color:#86499B"/>
		<stop  offset="1" style="stop-color:#BD2A95"/>
	</linearGradient>
	<path class="st3" d="M117.3,13.3h-0.4c-2,0-3.5,1.6-3.5,3.6v18.3c0,5.1-3.5,8.5-8.7,8.5c-4.5,0-7.5-3.1-7.5-7.9V16.9
		c0-2.1-1.5-3.6-3.5-3.6h-0.5c-2,0-3.5,1.6-3.5,3.6v18.8c0,9,6.1,15.3,14.8,15.3c3.6,0,6.8-1,9.3-2.7c0.6,1.2,1.7,2,3.2,2h0.4
		c2,0,3.5-1.5,3.5-3.6V16.9C120.8,14.8,119.3,13.3,117.3,13.3z"/>
	<linearGradient id="SVGID_5_" gradientUnits="userSpaceOnUse" x1="85.6137" y1="-19.5269" x2="247.4076" y2="98.0796">
		<stop  offset="0.1983" style="stop-color:#49C0BD"/>
		<stop  offset="0.5754" style="stop-color:#86499B"/>
		<stop  offset="1" style="stop-color:#BD2A95"/>
	</linearGradient>
	<path class="st4" d="M159.6,0.6c-0.8-0.6-1.9-0.8-2.9-0.4L156,0.4c-2.3,0.8-2.6,2.6-2.6,3.4v12.4c-3.1-2.3-6.9-3.6-11-3.6
		c-10.5,0-18.5,8.3-18.5,19.2c0,10.9,8,19.2,18.5,19.2c4.1,0,7.9-1.3,11-3.7c0.3,1.7,1.7,2.9,3.5,2.9h0.5c2,0,3.5-1.5,3.5-3.6V3.5
		C161,1.8,160.1,1,159.6,0.6z M142.6,43.7c-6.4,0-11-5-11-11.8c0-6.9,4.7-11.8,11.1-11.8c6.5,0,11,4.9,11,11.8
		S149.1,43.7,142.6,43.7z"/>
	<linearGradient id="SVGID_6_" gradientUnits="userSpaceOnUse" x1="94.0883" y1="-31.1856" x2="255.8822" y2="86.4208">
		<stop  offset="0.1983" style="stop-color:#49C0BD"/>
		<stop  offset="0.5754" style="stop-color:#86499B"/>
		<stop  offset="1" style="stop-color:#BD2A95"/>
	</linearGradient>
	<path class="st5" d="M185.3,12.6c-4.1,0-7.9,1.3-11,3.6V3.5c0-1.6-0.9-2.5-1.4-2.9C172.1,0,171-0.2,170,0.2l-0.7,0.2
		c-2.3,0.8-2.6,2.6-2.6,3.4v42.9c0,2,1.5,3.6,3.5,3.6h0.5c1.8,0,3.2-1.2,3.5-2.9c3.1,2.4,6.9,3.7,11,3.7c10.5,0,18.5-8.3,18.5-19.2
		C203.8,20.9,195.8,12.6,185.3,12.6z M185.2,20c6.4,0,11,5,11,11.8c0,6.9-4.6,11.8-11,11.8c-6.4,0-11-4.9-11-11.9
		c0-3.5,1.1-6.6,3.3-8.7C179.4,21.1,182.1,20,185.2,20z"/>
	<linearGradient id="SVGID_7_" gradientUnits="userSpaceOnUse" x1="107.6467" y1="-49.8382" x2="269.4406" y2="67.7683">
		<stop  offset="0.1983" style="stop-color:#49C0BD"/>
		<stop  offset="0.5754" style="stop-color:#86499B"/>
		<stop  offset="1" style="stop-color:#BD2A95"/>
	</linearGradient>
	<path class="st6" d="M221.1,12.6c-5.2,0-9.9,1.9-14,5.6c-0.8,0.7-1.3,1.6-1.4,2.6c-0.1,0.9,0.3,1.9,1,2.7l0.1,0.1
		c1.3,1.5,3.3,1.6,4.9,0.4l0.2-0.1c2.8-2.6,5.9-3.9,9.2-3.9c4.6,0,7.6,2.7,7.6,6.8v0.4c-2.8-1-5.7-1.5-8.6-1.5
		c-9.1,0-15.5,5.2-15.5,12.7c0,7.4,6,12.6,14.6,12.6c3.7,0,7-1,9.8-2.8c0.6,1.2,1.8,2,3.2,2h0.4c2,0,3.5-1.5,3.5-3.6V27.2
		C236.1,18.5,230,12.6,221.1,12.6z M219.3,43.7c-4.4,0-7.2-2-7.2-5.1c0-4,4.3-5.5,7.9-5.5c3,0,6.2,0.9,8.6,2v1.3
		C228.6,41.2,223.9,43.7,219.3,43.7z"/>
	<linearGradient id="SVGID_8_" gradientUnits="userSpaceOnUse" x1="118.5619" y1="-64.8546" x2="280.3558" y2="52.7519">
		<stop  offset="0.1983" style="stop-color:#49C0BD"/>
		<stop  offset="0.5754" style="stop-color:#86499B"/>
		<stop  offset="1" style="stop-color:#BD2A95"/>
	</linearGradient>
	<path class="st7" d="M253.1,27.4l-1-0.4c-3.5-1.5-4.7-2.5-4.7-4c0-2.1,2.3-3.1,4.6-3.1c2.6,0,4.2,0.8,5.8,3
		c0.6,0.8,1.5,1.3,2.4,1.4c0.9,0.1,1.9-0.2,2.6-0.8l0.4-0.3c1.5-1.3,1.6-3.3,0.4-4.9c-2.6-3.7-6.7-5.7-11.5-5.7
		c-7.1,0-12.2,4.5-12.2,10.6c0,6.5,5.9,9.1,9.1,10.5l1.4,0.6c4.9,1.9,7.2,3.1,7.2,5.6c0,3.4-4,3.8-5.7,3.8c-3.4,0-5.5-1.1-7.2-3.8
		c-1.1-1.7-3.2-2.1-4.9-1l-0.3,0.2c-1.4,0.9-2.3,2.8-1,4.9c2.7,4.5,7.6,7,13.5,7c7.7,0,13.1-4.6,13.1-11.2
		C265.1,32,258.4,29.4,253.1,27.4z M243,41.3l-0.4,0.2c0,0,0,0,0,0L243,41.3C243,41.3,243,41.3,243,41.3z"/>
	<linearGradient id="SVGID_9_" gradientUnits="userSpaceOnUse" x1="128.7794" y1="-78.9109" x2="290.5733" y2="38.6956">
		<stop  offset="0.1983" style="stop-color:#49C0BD"/>
		<stop  offset="0.5754" style="stop-color:#86499B"/>
		<stop  offset="1" style="stop-color:#BD2A95"/>
	</linearGradient>
	<path class="st8" d="M284.7,12.6c-3.4,0-6.5,0.9-9.1,2.6V3.5c0-1.6-0.9-2.5-1.4-2.9c-0.8-0.6-1.9-0.8-2.9-0.4l-0.7,0.2
		c-2.3,0.8-2.6,2.6-2.6,3.4v42.9c0,2,1.5,3.6,3.5,3.6h0.5c2,0,3.5-1.5,3.5-3.6V28.4c0-5,3.5-8.4,8.8-8.4c5,0,8,3.1,8,8v18.6
		c0,2,1.5,3.6,3.5,3.6h0.5c2,0,3.5-1.5,3.5-3.6V27.9C300,18.9,293.7,12.6,284.7,12.6z"/>
</g>
</svg>
