<?xml version="1.0" encoding="utf-8"?>
<!-- Generator: Adobe Illustrator 23.1.0, SVG Export Plug-In . SVG Version: 6.00 Build 0)  -->
<svg version="1.1" id="Layer_1" xmlns="http://www.w3.org/2000/svg" xmlns:xlink="http://www.w3.org/1999/xlink" x="0px" y="0px"
	 viewBox="0 0 141.7 24.1" style="enable-background:new 0 0 141.7 24.1;" xml:space="preserve">
<style type="text/css">
	.st0{fill:#FFFFFF;}
</style>
<g>
	<path class="st0" d="M9,9.4c1.7,0,3.2,0.7,4.3,2.1l0.1,0.1c0.3,0.3,0.8,0.5,1.2,0.5c0,0,0,0,0,0c0.4,0,0.9-0.2,1.2-0.5l0.1-0.1
		c0.5-0.5,0.8-1.5,0.1-2.3C14.3,7.1,11.8,6,9,6C3.9,6,0,9.9,0,15c0,5.2,3.9,9.1,9,9.1c2.9,0,5.3-1.2,7-3.3c0.7-0.8,0.5-1.8,0-2.3
		l-0.1-0.1c-0.7-0.7-1.7-0.7-2.4,0l-0.1,0.1c-1.1,1.4-2.6,2.1-4.3,2.1c-3.2,0-5.4-2.4-5.4-5.6C3.6,11.8,5.9,9.4,9,9.4z"/>
	<path class="st0" d="M20.7,0.3c-0.2-0.2-0.7-0.4-1.5-0.2L19,0.2c-0.8,0.2-1.2,0.8-1.2,1.6v20.3c0,1,0.7,1.7,1.7,1.7h0.2
		c0.9,0,1.7-0.7,1.7-1.7V1.6C21.3,0.9,20.9,0.5,20.7,0.3z"/>
	<path class="st0" d="M31.9,6c-5.2,0-9.2,3.9-9.2,9.1c0,5.2,3.9,9.1,9.2,9.1c5.2,0,9.2-3.9,9.2-9.1C41.1,9.9,37.2,6,31.9,6z
		 M31.9,20.6c-3.2,0-5.6-2.4-5.6-5.6c0-3.2,2.3-5.6,5.6-5.6s5.6,2.4,5.6,5.6C37.5,18.3,35.2,20.6,31.9,20.6z"/>
	<path class="st0" d="M55.4,6.3h-0.2c-0.9,0-1.7,0.7-1.7,1.7v8.6c0,2.4-1.6,4-4.1,4c-2.1,0-3.5-1.5-3.5-3.7V8c0-1-0.7-1.7-1.7-1.7
		H44c-0.9,0-1.7,0.8-1.7,1.7v8.9c0,4.2,2.9,7.2,7,7.2c1.7,0,3.2-0.5,4.4-1.3c0.3,0.6,0.8,0.9,1.5,0.9h0.2c0.9,0,1.7-0.7,1.7-1.7V8
		C57.1,7,56.4,6.3,55.4,6.3z"/>
	<path class="st0" d="M75.4,0.3C75,0,74.5-0.1,74,0.1l-0.3,0.1c-1.1,0.4-1.2,1.2-1.2,1.6v5.9C71,6.6,69.2,6,67.3,6
		c-5,0-8.7,3.9-8.7,9.1c0,5.2,3.8,9.1,8.7,9.1c2,0,3.8-0.6,5.2-1.7c0.1,0.8,0.8,1.4,1.6,1.4h0.2c0.9,0,1.7-0.7,1.7-1.7V1.6
		C76.1,0.9,75.6,0.5,75.4,0.3z M67.4,20.6c-3,0-5.2-2.4-5.2-5.6c0-3.2,2.2-5.6,5.2-5.6c3,0,5.2,2.3,5.2,5.6S70.4,20.6,67.4,20.6z"/>
	<path class="st0" d="M87.5,6c-1.9,0-3.7,0.6-5.2,1.7v-6c0-0.8-0.4-1.2-0.6-1.3c-0.4-0.3-0.9-0.4-1.4-0.2L80,0.2
		c-1.1,0.4-1.2,1.2-1.2,1.6v20.3c0,0.9,0.7,1.7,1.7,1.7h0.2c0.8,0,1.5-0.6,1.6-1.4c1.4,1.1,3.2,1.7,5.2,1.7c5,0,8.7-3.9,8.7-9.1
		C96.3,9.9,92.5,6,87.5,6z M87.5,9.4c3,0,5.2,2.4,5.2,5.6c0,3.2-2.2,5.6-5.2,5.6c-3,0-5.2-2.3-5.2-5.6c0-1.6,0.5-3.1,1.5-4.1
		C84.7,10,86,9.4,87.5,9.4z"/>
	<path class="st0" d="M104.4,6c-2.4,0-4.7,0.9-6.6,2.7c-0.4,0.3-0.6,0.8-0.6,1.2c0,0.4,0.1,0.9,0.5,1.3l0,0c0.6,0.7,1.6,0.8,2.3,0.2
		l0.1-0.1c1.3-1.2,2.8-1.9,4.3-1.9c2.2,0,3.6,1.3,3.6,3.2v0.2c-1.3-0.5-2.7-0.7-4.1-0.7c-4.3,0-7.3,2.5-7.3,6c0,3.5,2.8,5.9,6.9,5.9
		c1.7,0,3.3-0.5,4.6-1.3c0.3,0.6,0.8,0.9,1.5,0.9h0.2c1,0,1.7-0.7,1.7-1.7v-9.2C111.5,8.7,108.7,6,104.4,6z M103.6,20.6
		c-2.1,0-3.4-1-3.4-2.4c0-1.9,2-2.6,3.7-2.6c1.4,0,2.9,0.4,4,1v0.6C108,19.5,105.8,20.6,103.6,20.6z"/>
	<path class="st0" d="M119.6,12.9l-0.5-0.2c-1.7-0.7-2.2-1.2-2.2-1.9c0-1,1.1-1.4,2.2-1.4c1.2,0,2,0.4,2.8,1.4
		c0.3,0.4,0.7,0.6,1.1,0.7c0.4,0,0.9-0.1,1.2-0.4l0.2-0.1c0.7-0.6,0.8-1.6,0.2-2.3c-1.2-1.7-3.2-2.7-5.4-2.7c-3.3,0-5.8,2.1-5.8,5
		c0,3.1,2.8,4.3,4.3,4.9l0.7,0.3c2.3,0.9,3.4,1.5,3.4,2.6c0,1.6-1.9,1.8-2.7,1.8c-1.6,0-2.6-0.5-3.4-1.8c-0.5-0.8-1.5-1-2.3-0.5
		l-0.1,0.1c-0.7,0.4-1.1,1.3-0.5,2.3c1.3,2.1,3.6,3.3,6.4,3.3c3.7,0,6.2-2.2,6.2-5.3C125.2,15.1,122.1,13.9,119.6,12.9z M114.8,19.5
		l-0.2,0.1c0,0,0,0,0,0L114.8,19.5C114.8,19.5,114.8,19.5,114.8,19.5z"/>
	<path class="st0" d="M134.5,6c-1.6,0-3.1,0.4-4.3,1.2V1.6c0-0.8-0.4-1.2-0.6-1.3c-0.4-0.3-0.9-0.4-1.4-0.2l-0.3,0.1
		c-1.1,0.4-1.2,1.2-1.2,1.6v20.3c0,0.9,0.7,1.7,1.7,1.7h0.2c0.9,0,1.7-0.7,1.7-1.7v-8.6c0-2.4,1.7-4,4.2-4c2.3,0,3.8,1.5,3.8,3.8
		v8.8c0,0.9,0.7,1.7,1.7,1.7h0.2c0.9,0,1.7-0.7,1.7-1.7v-8.9C141.7,8.9,138.8,6,134.5,6z"/>
</g>
</svg>
